<?xml version="1.0" standalone="no"?>
<!DOCTYPE svg PUBLIC "-//W3C//DTD SVG 20010904//EN"
 "http://www.w3.org/TR/2001/REC-SVG-20010904/DTD/svg10.dtd">
<svg version="1.0" xmlns="http://www.w3.org/2000/svg"
 width="693.000000pt" height="693.000000pt" viewBox="0 0 693.000000 693.000000"
 preserveAspectRatio="xMidYMid meet">
<metadata>
Created by potrace 1.14, written by Peter Selinger 2001-2017
</metadata>
<g transform="translate(0.000000,693.000000) scale(0.100000,-0.100000)"
fill="#000000" stroke="none">
<path d="M3190 6774 c-146 -85 -274 -159 -285 -164 -11 -6 -92 -52 -180 -104
-88 -52 -184 -107 -212 -123 l-53 -27 0 -579 0 -578 53 29 c54 30 203 116 295
171 29 17 57 31 62 31 6 0 10 5 10 10 0 6 5 10 11 10 6 0 52 24 102 54 371
218 460 267 477 261 16 -5 195 -105 260 -145 8 -5 71 -41 140 -81 69 -40 193
-112 277 -160 83 -49 167 -97 185 -108 400 -228 779 -447 800 -462 15 -10 29
-19 31 -19 3 0 69 -38 148 -84 l144 -84 0 -1157 0 -1157 -215 -125 c-118 -69
-240 -139 -270 -155 -30 -17 -71 -41 -90 -53 -19 -12 -55 -33 -80 -47 -64 -36
-272 -156 -495 -285 -104 -61 -264 -153 -355 -205 -91 -53 -210 -121 -265
-153 -182 -106 -217 -125 -225 -125 -5 0 -64 32 -132 71 -67 40 -136 80 -153
89 -42 24 -283 164 -325 189 -19 11 -42 24 -50 28 -8 4 -78 44 -155 89 -241
140 -969 560 -985 567 -8 4 -55 32 -105 61 l-90 54 -3 1731 c-1 952 -4 1731
-7 1731 -3 0 -13 -5 -23 -10 -9 -6 -231 -133 -492 -284 l-475 -273 0 -1737 0
-1737 25 -14 c14 -8 102 -59 195 -113 94 -54 177 -101 185 -105 8 -4 29 -15
45 -26 37 -22 993 -575 1055 -609 40 -23 77 -44 135 -79 37 -22 808 -467 875
-505 19 -11 40 -24 45 -28 6 -4 35 -21 65 -37 30 -17 111 -63 180 -103 69 -40
140 -81 157 -91 32 -18 34 -18 65 1 18 11 39 23 47 27 8 3 64 36 125 71 61 35
136 78 166 95 30 17 111 64 179 104 67 40 125 73 127 73 3 0 21 11 42 23 20
13 57 35 82 49 25 14 160 92 300 173 140 81 273 157 295 170 22 12 94 54 160
92 122 71 168 98 515 298 107 62 236 136 285 165 50 29 106 61 125 72 19 11
144 83 278 160 l242 140 0 1733 0 1733 -207 120 c-115 66 -224 129 -243 139
-19 11 -105 61 -190 110 -85 49 -229 133 -320 185 -91 52 -205 119 -255 148
-49 29 -108 62 -130 75 -22 12 -128 73 -235 135 -107 62 -210 122 -229 132
-19 11 -102 59 -185 108 -83 48 -169 98 -191 110 -22 13 -60 34 -85 48 -25 14
-78 45 -118 69 -41 24 -78 43 -83 43 -5 0 -9 4 -9 9 0 5 -6 11 -13 13 -10 2
-236 130 -317 179 -59 35 -189 109 -192 108 -2 0 -122 -70 -268 -155z"/>
<path d="M3280 4516 c-96 -56 -195 -113 -220 -126 -25 -13 -52 -30 -60 -36 -8
-6 -40 -25 -70 -41 -53 -29 -115 -64 -155 -91 -11 -6 -27 -15 -35 -19 -8 -4
-54 -30 -101 -57 -47 -28 -107 -62 -132 -76 l-47 -25 0 -580 0 -580 58 -33
c31 -18 75 -43 97 -56 393 -229 846 -487 852 -483 4 2 157 90 338 194 182 105
349 201 371 214 23 13 96 56 163 94 l121 70 0 580 0 580 -143 81 c-78 45 -201
115 -274 157 -72 42 -147 85 -165 96 -18 10 -120 69 -226 130 -106 61 -194
111 -195 110 -1 0 -81 -46 -177 -103z"/>
</g>
</svg>
